HIERARCHY
ROOT Hips
{
  OFFSET 0 0 0
  CHANNELS 6 Xposition Yposition Zposition Zrotation Yrotation Xrotation
  JOINT LeftThigh
  {
    OFFSET 8.409438 0 -5.917753
    CHANNELS 3 Zrotation Yrotation Xrotation
    JOINT LeftLeg
    {
      OFFSET 0 0 -42.358652
      CHANNELS 3 Zrotation Yrotation Xrotation
      JOINT LeftFoot
      {
        OFFSET 0 0 -39.357303
        CHANNELS 3 Zrotation Yrotation Xrotation
      }
    }
  }
  JOINT RightThigh
  {
    OFFSET -8.409438 0 -5.917753
    CHANNELS 3 Zrotation Yrotation Xrotation
    JOINT RightLeg
    {
      OFFSET 0 0 -42.358652
      CHANNELS 3 Zrotation Yrotation Xrotation
      JOINT RightFoot
      {
        OFFSET 0 0 -39.357303
        CHANNELS 3 Zrotation Yrotation Xrotation
      }
    }
  }
  JOINT SpineLow
  {
    OFFSET 0 0 4.719101
    CHANNELS 3 Zrotation Yrotation Xrotation
    JOINT SpineMid
    {
      OFFSET 0 0 12.899191
      CHANNELS 3 Zrotation Yrotation Xrotation
      JOINT Chest
      {
        OFFSET 0 0 12.899191
        CHANNELS 3 Zrotation Yrotation Xrotation
        JOINT LeftShoulder
        {
          OFFSET 7.550562 1.41573 9.438202
          CHANNELS 3 Zrotation Yrotation Xrotation
          JOINT LeftArm
          {
            OFFSET 9.155056 0 4.247191
            CHANNELS 3 Zrotation Yrotation Xrotation
            JOINT LeftForearm
            {
              OFFSET 0 0 25.771955
              CHANNELS 3 Zrotation Yrotation Xrotation
              JOINT LeftHand
              {
                OFFSET 0 0 25.197169
                CHANNELS 3 Zrotation Yrotation Xrotation
              }
            }
          }
        }
        JOINT RightShoulder
        {
          OFFSET -7.550562 1.41573 9.438202
          CHANNELS 3 Zrotation Yrotation Xrotation
          JOINT RightArm
          {
            OFFSET -9.155056 0 4.247191
            CHANNELS 3 Zrotation Yrotation Xrotation
            JOINT RightForearm
            {
              OFFSET 0 0 -25.771955
              CHANNELS 3 Zrotation Yrotation Xrotation
              JOINT RightHand
              {
                OFFSET 0 0 -25.197169
                CHANNELS 3 Zrotation Yrotation Xrotation
              }
            }
          }
        }
        JOINT Neck
        {
          OFFSET 0 0 15.101124
          CHANNELS 3 Zrotation Yrotation Xrotation
          JOINT Head
          {
            OFFSET 0 0 11.325843
            CHANNELS 3 Zrotation Yrotation Xrotation
            End Site
            {
              OFFSET 0 0 14.157303
            }
          }
        }
      }
    }
  }
}
MOTION
Frames: 16
Frame Time: 0.0
0.0  101.685394  0.0  0.836121  25.337383  -97.86909  3.784037  -23.198477  8.57657  1.437512  13.929678  46.33599  -4.074594  0.872407  -11.619383  -28.374959  6.87392  -42.429499  11.549643  2.886127  55.009002  9.454091  4.448634  3.817953  -3.196089  0.835958  2.152561  -8.657782  2.562458  5.764241  -8.657782  2.562458  5.76424  -3.182451  20.874255  9.457698  156.234547  27.630022  -169.742542  -65.97043  -19.043062  90.102175  60.713251  -2.987183  35.640513  16.967735  -5.983525  18.440931  27.789848  78.959078  -25.709903  -31.746464  1.188891  -80.195951  64.330914  0.163396  26.711799  -3.332293  -0.946499  -4.396001  -2.506125  -0.685971  -3.302203  
0.0  101.685394  0.0  0.778062  25.394543  -97.784825  3.850916  -23.102898  8.326868  1.327413  13.891234  46.423648  -4.015706  0.866573  -11.674818  -28.176156  7.139907  -42.264177  10.757865  3.243921  54.444502  9.86508  4.281923  3.883863  -3.190679  0.81252  2.129897  -8.645812  2.495166  5.70557  -8.645812  2.495166  5.70557  -2.93675  20.906956  9.69258  156.86993  28.053591  -169.388563  -65.592336  -19.919594  90.008019  60.709798  -3.874161  34.675482  16.926474  -5.97414  18.531393  28.557509  79.007002  -24.98096  -31.675791  1.303156  -80.195391  64.325034  0.128955  26.868696  -3.367386  -0.98274  -4.463637  -2.532815  -0.712531  -3.353182  
0.0  101.685394  0.0  0.734849  25.462935  -97.65312  3.973251  -23.057394  8.077692  1.365454  13.80866  46.533336  -3.994602  0.894369  -11.663864  -27.887235  7.323978  -42.213945  9.882156  3.771203  53.979167  10.389804  4.179848  4.035936  -3.179251  0.801797  2.111561  -8.616176  2.462595  5.657343  -8.616176  2.462595  5.657343  -2.962112  20.794183  9.829622  156.055801  29.027772  -169.159238  -66.603391  -21.151248  89.451067  60.669975  -4.647773  33.587456  16.877108  -6.08655  18.54727  29.778666  79.11746  -23.76665  -31.642758  1.359917  -80.256297  64.180291  0.131683  26.967487  -3.576638  -1.079372  -4.590313  -2.690687  -0.782749  -3.44909  
0.0  101.685394  0.0  0.69039  25.365498  -97.579187  4.071296  -23.03721  7.882674  1.471127  13.778227  46.597479  -3.962516  0.909837  -11.641252  -27.290622  7.537464  -42.2355  8.996343  4.294865  53.707216  10.845031  4.112914  4.222858  -3.148655  0.794427  2.108933  -8.533267  2.439589  5.652317  -8.533266  2.439588  5.652316  -2.910269  20.769978  9.984513  157.033403  29.735063  -168.466159  -66.14994  -22.017169  89.313174  60.574617  -5.277772  32.402695  16.797908  -6.128084  18.54192  31.389013  79.192389  -22.27487  -31.658789  1.362658  -80.365796  64.046375  0.071825  26.982089  -3.66745  -1.229153  -4.707737  -2.760145  -0.893715  -3.538195  
0.0  101.685394  0.0  0.608323  25.151306  -97.531828  4.321747  -23.107775  7.700784  1.526521  13.724963  46.600595  -3.87268  1.033464  -11.534648  -26.32885  7.827157  -42.323281  8.017993  4.804234  53.662297  11.144286  3.997406  4.339995  -3.101012  0.787865  2.124647  -8.402994  2.419667  5.697906  -8.402993  2.419667  5.697906  -3.16291  20.703312  9.997827  158.408824  30.592352  -167.509167  -65.578945  -22.994265  89.075894  60.437429  -5.88099  31.0727  16.816861  -6.209174  18.482308  33.026307  79.272769  -20.677877  -31.661718  1.360493  -80.522488  63.937891  -0.054306  26.970687  -3.856533  -1.419993  -4.884976  -2.903823  -1.034297  -3.672679  
0.0  101.685394  0.0  0.60204  24.998357  -97.414063  4.437093  -23.097164  7.474143  1.727713  13.681231  46.708126  -3.771904  1.125328  -11.456168  -25.532363  8.245592  -42.629567  7.277816  5.019729  53.83573  11.209078  3.828337  4.341284  -3.069938  0.788879  2.128208  -8.317868  2.420237  5.708729  -8.317868  2.420237  5.708729  -3.269232  20.752706  10.090102  159.855358  31.747308  -166.356797  -64.83094  -24.061212  88.681587  60.321729  -6.525967  29.644578  16.731005  -6.174535  18.483785  34.900035  79.290354  -19.007237  -31.668186  1.405145  -80.686823  63.852585  -0.221835  26.992338  -3.973628  -1.601167  -5.019181  -2.993419  -1.168394  -3.774742  
0.0  101.685394  0.0  0.508764  24.644829  -97.337378  4.824642  -23.240217  7.252954  1.86015  13.597153  46.726154  -3.623462  1.314987  -11.26357  -24.663475  8.438929  -42.864651  6.777285  5.167943  53.98668  11.201022  3.655826  4.321272  -2.991766  0.788318  2.144573  -8.103684  2.414042  5.756543  -8.103684  2.414042  5.756543  -3.768676  20.736542  10.056122  161.674873  33.102357  -164.984153  -63.942202  -25.220468  88.140102  60.272691  -7.164667  28.079199  16.558118  -6.218737  18.437965  37.090575  79.296307  -17.008154  -31.699176  1.500614  -80.893671  63.753431  -0.459433  27.102732  -4.267775  -1.849196  -5.187805  -3.21653  -1.350865  -3.903658  
0.0  101.685394  0.0  0.531547  24.53824  -97.095124  4.998997  -23.246968  6.908928  2.113992  13.507641  46.867248  -3.547475  1.460772  -11.094045  -24.357852  8.469794  -43.23514  6.643319  5.220429  54.024303  11.048566  3.530626  4.298259  -2.955647  0.802489  2.133522  -8.004283  2.44825  5.726131  -8.004283  2.44825  5.726131  -4.235784  20.807962  10.011822  163.53362  34.653745  -163.447612  -62.955907  -26.578244  87.520563  60.16174  -7.730362  26.346823  16.324032  -6.192596  18.470911  39.707844  79.235093  -14.677282  -31.787526  1.657182  -81.155381  63.553629  -0.760725  27.330755  -4.492506  -2.088694  -5.293459  -3.387405  -1.527846  -3.985268  
0.0  101.685394  0.0  0.534454  24.393624  -96.812011  5.375757  -23.28675  6.453571  1.800991  13.418614  46.540274  -3.199682  1.904695  -10.570818  -24.236599  8.21564  -43.556782  6.826121  5.161523  53.937616  10.783048  3.488165  4.299877  -2.884556  0.856777  2.147709  -7.805061  2.591869  5.761508  -7.805061  2.591869  5.761508  -5.063378  20.522598  9.750578  165.514827  36.24959  -161.658135  -61.940988  -28.137215  86.896244  59.843721  -8.194527  24.384541  15.966046  -6.477293  18.285282  42.934662  79.112614  -11.733193  -31.900798  1.823362  -81.506141  63.201705  -1.015285  27.724758  -5.007285  -2.541572  -5.491076  -3.778057  -1.861522  -4.138795  
0.0  101.685394  0.0  0.5274  24.326249  -96.515049  5.629718  -23.347227  5.986836  1.941255  13.414975  46.725766  -3.085862  2.030037  -10.375627  -24.397016  7.738708  -43.83568  7.236656  5.131302  53.738606  10.582933  3.493704  4.322869  -2.864758  0.86462  2.142651  -7.750542  2.610967  5.747638  -7.750541  2.610968  5.747638  -5.640544  20.54398  9.563285  167.440588  37.927245  -159.529771  -60.912813  -29.802561  86.284288  59.293641  -8.500294  22.144931  15.713626  -6.45962  18.282695  46.752215  78.887071  -8.305774  -32.021932  1.954334  -81.950926  62.751846  -1.15284  28.257419  -5.245958  -2.740844  -5.616474  -3.959318  -2.007807  -4.235463  
0.0  101.685394  0.0  0.415966  24.217519  -96.254147  6.079976  -23.473095  5.51135  1.61544  13.491312  46.609982  -2.6959  2.289075  -9.995466  -24.601763  6.991766  -44.024695  7.830805  5.157026  53.53334  10.45081  3.45636  4.30864  -2.877193  0.844362  2.141554  -7.786206  2.556666  5.746417  -7.786205  2.556665  5.746417  -6.094028  20.684938  9.28272  169.360679  39.709482  -157.131477  -59.967334  -31.524421  85.746692  58.506454  -8.55601  19.699439  15.68856  -6.409242  18.286564  51.148914  78.568661  -4.292934  -32.123649  2.078919  -82.460336  62.24675  -1.239216  28.949255  -5.509383  -2.874571  -5.782643  -4.158828  -2.104235  -4.362423  
0.0  101.685394  0.0  0.367759  24.161386  -95.977348  6.462929  -23.597527  4.996458  1.428685  13.637121  46.687901  -2.389186  2.388065  -9.768128  -24.989934  6.175329  -44.248311  8.581907  5.286171  53.37318  10.563244  3.232379  4.273198  -2.925355  0.81723  2.13891  -7.92011  2.486498  5.74034  -7.92011  2.486498  5.74034  -6.314641  20.994763  8.977825  171.256427  41.680861  -154.423742  -58.88758  -33.295284  85.12709  57.488538  -8.424304  17.10832  15.730761  -6.172868  18.332574  55.642931  78.049488  -0.286607  -32.213074  2.283702  -83.028485  61.626236  -1.360696  29.815691  -5.51769  -2.835883  -5.916151  -4.165355  -2.073939  -4.462257  
0.0  101.685394  0.0  0.288125  23.918626  -95.764708  7.071246  -23.743123  4.577955  1.116246  13.805357  46.666344  -1.933442  2.512018  -9.466764  -25.163873  5.293863  -44.407045  9.367719  5.485775  53.275954  10.864756  2.842637  4.19239  -2.973806  0.788108  2.14499  -8.054613  2.411978  5.758408  -8.054613  2.411978  5.758409  -6.576828  21.397064  8.587351  173.601041  43.77587  -151.270626  -57.570115  -35.24876  84.34766  56.322114  -8.260736  14.58309  15.979374  -5.903707  18.385228  59.820855  77.308582  3.443797  -32.226434  2.587947  -83.64583  60.85642  -1.472387  30.881074  -5.450738  -2.755872  -6.060341  -4.115089  -2.013286  -4.569403  
0.0  101.685394  0.0  0.259872  23.738062  -95.497953  7.616354  -23.897109  4.190674  0.734371  14.005771  46.481509  -1.50324  2.567629  -9.207469  -25.357151  4.470415  -44.624918  10.124582  5.714556  53.198657  11.244493  2.463825  4.126098  -3.039534  0.761229  2.154544  -8.23602  2.345523  5.785148  -8.236019  2.345523  5.785148  -6.864563  21.942023  8.03875  176.227235  45.981933  -147.725155  -55.845675  -37.430984  83.347888  55.298536  -8.085002  12.101659  16.062507  -5.52732  18.331558  64.18437  76.293595  7.169493  -32.188619  2.927922  -84.275738  59.994112  -1.538325  32.145633  -5.336684  -2.67043  -6.271832  -4.029712  -1.948483  -4.726779  
0.0  101.685394  0.0  0.198037  23.283027  -95.353686  8.189751  -24.004709  3.96286  0.424891  14.082154  46.208743  -1.082173  2.657179  -8.891269  -25.207669  3.720966  -44.736743  10.594264  6.10914  53.077648  11.931625  2.234974  4.144482  -3.180316  0.799808  2.158277  -8.617376  2.463306  5.785056  -8.617376  2.463306  5.785056  -6.612396  22.219195  7.470864  179.390612  48.05074  -143.793097  -53.815841  -39.750326  82.22097  54.499357  -7.817931  9.702074  17.081184  -5.503362  18.360625  68.186662  75.097328  10.690979  -32.114746  3.240155  -84.940984  59.042401  -1.588109  33.620104  -4.796033  -2.780229  -6.406932  -3.625956  -2.035315  -4.826437  
0.0  101.685394  0.0  0.172439  22.906197  -95.149988  8.643854  -24.098862  3.857171  0.276655  14.105882  45.872034  -0.779669  2.681296  -8.604954  -24.893188  3.091067  -44.845423  11.149701  6.245552  52.997468  12.156254  2.021098  4.134699  -3.253473  0.788585  2.180657  -8.817282  2.441981  5.844635  -8.817282  2.441981  5.844635  -7.053855  22.746418  6.587997  -177.223503  49.995122  -139.522566  -51.564306  -42.093546  81.052362  53.748156  -7.425002  7.3964  17.249292  -5.16036  18.165157  72.604556  73.566572  14.420496  -32.011131  3.540085  -85.651156  57.922241  -1.66862  35.315676  -4.573945  -2.789105  -6.706238  -3.460901  -2.042073  -5.049905  
